<svg id="E-Commerce" height="512" viewBox="-70.866 -70.866 850.394 850.394" width="512" xmlns="http://www.w3.org/2000/svg"><g><path d="m66.718 615.604c-1.793 56.809 64.402 91.047 104.5 51.352 32.715 27.738 61.071 28.41 92.899 1.668 21.941 18.695 55.816 28.516 84.73 1.227 3.297-2.023 5.68-7.906 8.047-4.113 17.305 21.375 50.195 28.402 75.602 12.609 4.602-2.465 8.512-5.504 11.832-8.602 14.293 16.59 43.039 22.668 65.34 16.246 12.641-3.473 21.641-10.828 28.184-17.988 6.027 5.5 13.91 10.879 24.301 13.738 37.961 10.891 76.43-18.898 79.543-59.559 6.426-77.387 1.391-153.824 1.391-230.613.078-93.43.363-188.247-.805-282.985 7.875-60.594-53.566-110.809-104.797-67.918-21.238-26.984-69.141-27.348-93.332-1.012-9.395-10.027-25.953-19.164-41.676-18.473-18.871-.152-36.266 8.867-47.848 22.539-19.211-24.172-66.934-31.727-89.961-5.121-26.832-27.852-72.364-20.121-94.043 3.539-10.297-8.418-24.227-17.469-42.426-17.469-34.134-1.522-65.169 38.189-61.603 72.755-3.886 194.676-3.875 364.528.122 518.18z" fill="#fff"/><g><path d="m603.094 85.526c-.293-2.039-1.043-3.586-2.043-4.781-7.273-15.246-20.371-24.164-36.746-12.379-19.754 14.238-25.84 30.621-48.863 5.023-8.555-9.52-13.703-17.195-27.91-14.961-16.609 2.609-20.691 15.887-33.691 25.707-18.613 14.059-32.621-20.238-46.57-24.074-6.992-1.926-16.473.836-21.297 6.277-13.855 15.602-30.184 22.613-49.098 12.055-7.934-4.43-14.371-15.141-24-17.789-6.551-1.809-15.938-.977-20.723 4.652-8.301 9.754-20.438 26.973-37.285 18.879-10.191-4.898-11.566-15.273-20.297-20.832-34.653-22.035-49.008 41.363-76.325 18.656-15.703-13.047-29.395-30.461-47.105-8.695-6.137 7.547-6.113 16.738-6.297 25.813-3.426 171.5-4.316 344.047.125 515.528.246 9.32 3.352 22.754 12.559 27.215 6.137 2.973 14.863 6.672 21.402 1.961 20.797-14.977 29.781-36.258 54.336-8.961 16.684 18.551 33.903 20.648 50.442-.531 29.395-37.66 48.801 35.816 79.031 7.586 16.953-15.828 32.497-27.98 55.844-8.32 7.469 6.289 7.184 8.473 14.516 13.18 6.781 4.355 15.109 1.203 21.332-2.125 5.465-2.926 10.434-11.094 14.871-15.535 19.332-19.395 33.227 2.043 42.707 14.18 5.742 7.355 19.395 8.074 27.508 5.844 15.832-4.355 20.363-33.176 39.875-30.109 14.23 2.234 19.313 22.117 32.91 25.859 16.555 4.555 29.953-10.191 31.258-25.848 6.258-74.926 1.207-152.355 1.262-227.457.07-94.149.355-188.325-.805-282.465-.078-6.098.059-12.301-.395-18.41.268-1.538.171-3.252-.528-5.143z" fill="#68182b"/><path d="m583.719 309.917c-.039-50.004-.113-100.012-.387-150.008-.094-16.941-.188-33.891-.41-50.832-.047-3.664-.41-16.953-.25-18.059-3.309-7.891-27.758 14.422-32.551 16.414-9.367 3.895-17.16 3.875-26.527.176-11.961-4.727-28.871-33.922-43.676-18.766-9.039 9.254-17.691 16.273-30.586 18.91-9.586 1.953-18.609-2.453-26.609-7.066-5.25-3.031-10.773-8.402-14.641-12.945-7.238-8.516-19.703 7.203-24.219 9.797-23.242 13.359-47.883 10.004-67.875-8.664-10.992-10.258-43.91 26.855-65.391 16.539-18.418-8.852-28.208-28.504-49-9.781-7.133 6.418-14.75 13.316-24.719 14.496-9.961 1.18-17.703-1.762-26.023-7.121-4.191-2.695-24.371-19.434-24.66-13.02-.328 7.34-.363 14.695-.449 22.043-1.891 167.254-4.746 335.372.316 502.575.285 9.281 10.633 2.242 17.266-3.27 7.938-6.598 15.109-11.859 25.516-13.496 9.137-1.434 17.152 2.75 24.516 7.602 5.496 3.625 10.852 9.328 14.816 14.461 11.148 14.398 23.336-4.441 29.5-9.094 22.09-16.684 45.324-11.055 62.953 9.664 7.777 9.148 35.16-15.98 44.117-17.254 10.567-1.496 21.735-2.535 31.516 3.086 6.277 3.605 24.754 21.258 31.82 14.168 4.43-4.438 9.113-9.758 14.641-12.949 8-4.613 17.023-9.016 26.609-7.066 12.051 2.461 22.918 9.09 30.586 18.914 12.473 15.973 33.004-14.547 43.676-18.766 9.344-3.695 20.094-4.531 29.043 1.238 5.004 3.223 29.566 21.641 29.828 17.156.445-7.586.402-15.219.496-22.82 1.082-95.41.843-190.844.758-286.262zm-65.161 205.699c-.047.578-.176 1.098-.297 1.625-.027.398-.012.773-.078 1.176-2.742 16.426-13.844 23.227-29.656 24.98-16.375 1.813-39.406 4.703-55.141-1.836-13.996-5.824-16.195-16.137-16.93-30.41-.75-14.652-2.746-31.566.766-46.031 7.352-30.215 48.324-25.133 72.305-22.477 34.668 3.829 31.188 46.715 29.031 72.973zm0-139.043c-.047.582-.176 1.102-.297 1.629-.027.395-.012.77-.078 1.172-2.742 16.43-13.836 23.23-29.656 24.984-16.367 1.813-39.414 4.707-55.141-1.84-13.996-5.82-16.195-16.129-16.93-30.402-.75-14.66-2.746-31.567.766-46.036 7.352-30.223 48.324-25.129 72.305-22.473 34.668 3.837 31.188 46.704 29.031 72.966zm0-139.035c-.047.582-.176 1.102-.297 1.629-.027.395-.012.773-.078 1.176-2.742 16.426-13.844 23.227-29.656 24.98-16.375 1.813-39.406 4.699-55.141-1.84-13.996-5.82-16.195-16.137-16.93-30.406-.75-14.652-2.746-31.566.766-46.031 7.352-30.215 48.324-25.133 72.305-22.477 34.668 3.828 31.188 46.715 29.031 72.969z" fill="#ffc522"/><path d="m438.988 243.143c-4.691-1.18-2.273-44.891-1.422-50.492 2.016-13.219 36.406-8.168 46.004-7.57 10.383.652 12.684 5.418 13.656 15.293 1.16 11.637 1.207 23.461.363 35.121-4.093 16.402-45.82 10.851-58.601 7.648z" fill="#ff7a0d"/><path d="m438.988 382.183c-4.699-1.18-2.273-44.891-1.422-50.493 2.016-13.223 36.398-8.168 46.004-7.566 10.375.652 12.684 5.41 13.656 15.285 1.16 11.633 1.207 23.461.363 35.122-4.085 16.386-45.82 10.855-58.601 7.652z" fill="#ff2e60"/><path d="m438.988 521.218c-4.691-1.18-2.273-44.891-1.422-50.492 2.016-13.219 36.406-8.168 46.004-7.57 10.383.652 12.684 5.422 13.656 15.293 1.16 11.637 1.207 23.461.363 35.121-4.093 16.402-45.82 10.851-58.601 7.648z" fill="#00ebed"/><path d="m497.59 374.53c.313-4.324.457-8.68.516-13.031-6.434 9.898-17.844 14.211-31.801 14.258-10.168.027-20.145-2.121-26.648-10.727-1.707-2.254-2.742-4.91-3.434-7.75-.188 12.238.328 24.289 2.766 24.902 12.78 3.204 54.515 8.735 58.601-7.652z" fill="#ea0f4d"/><path d="m477.523 331.729c-5.199-.391-10.484-.316-15.652-.566-4.188-.203-10.41.164-12.691 3.789-3.676 5.859-5.945 19.922 3.305 23.192 7.129 2.516 24.258 5.016 30.676.156 6-4.54 6.176-12.657 4.945-19.59-.977-5.512-3.173-6.407-10.583-6.981z" fill="#f69"/><path d="m438.988 521.218c12.781 3.203 54.508 8.754 58.602-7.648.324-4.469.469-8.957.523-13.453-.34.996-.676 1.992-1.102 2.992-4.324 10.211-17.066 11.082-26.219 12.066-8.48.914-16.617.023-24.461-3.543-6.465-2.938-8.719-8.355-10.133-14.23-.128 11.859.431 23.222 2.79 23.816z" fill="#19bfbb"/><path d="m477.57 469.694c-5.293-.109-10.902.707-15.582.813-4.641.105-11.344.441-12.984 5.926-1.625 5.418-1.773 14.18.5 19.414 2.813 6.461 8.293 7.363 14.773 8.102 8.648.98 23.148 3.633 24.934-8.203.438-2.891 1.387-9.629.887-15.391-.669-7.516-5.231-10.512-12.528-10.661z" fill="#6cfffb"/><path d="m470.156 234.737c-11.398 1.238-24.094-.25-30.938-10.594-1.316-1.988-2.234-4.258-2.984-6.629-.211 12.484.27 25 2.754 25.629 12.781 3.203 54.508 8.754 58.602-7.648.402-5.582.586-11.203.563-16.828-5.677 8.808-14.575 14.609-27.997 16.07z" fill="#ef6200"/><path d="m474.511 191.917c-4.797-.406-9.754-.176-14.414.125-5.609.363-9.848 1.008-12.039 5.5-5.129 10.527 8.867 14.258 18.438 14.316 11.055.078 22.953-1.09 22.125-12.293-.469-6.199-7.629-7.086-14.11-7.648z" fill="#ffb85a"/><path d="m518.261 517.241c-.027.398-.012.773-.078 1.176-.758 4.535-2.207 8.273-4.16 11.438 5.215-4.398 7.672-11.254 8.57-19.27 1.871-16.691 3.645-40.777-4.313-56.484-7.301-14.418-20.02-17.191-35.324-18.59-16.402-1.504-36.164-3.152-51.574 3.75-11.172 4.996-13.797 18.648-14.977 30.074.242-1.418.48-2.836.816-4.215 7.352-30.215 48.324-25.133 72.305-22.477 34.668 3.828 31.188 46.715 29.031 72.973-.046.578-.174 1.098-.296 1.625z" fill="#ffa222"/><path d="m562.109 602.987c-8.547-11.453-17.301-15.852-31.875-14.047-17.066 2.117-36.258 31.742-52.664 13.395-10.34-11.563-22.004-17.461-37.633-14.895-20.145 3.313-31.02 28.91-54.098 14.422-15.324-9.625-26.473-14.773-44.297-8.445-6.551 2.32-12.695 5.813-18.926 8.84-12.266 5.945-22.793-.75-33.215-7.27-14.391-9.004-29.742-9.086-44.969-2.328-9.148 4.055-17.758 11.199-28.094 11.781-10.766.605-22.02-13.496-29.191-19.98-12.133-10.977-26.602-.633-38.219 6.176-14.059 8.238-11.746-23.125-11.871-28.285-.211-9.168-.336-18.352-.48-27.527-.289-19.395-.496-38.793-1.09-58.18-1.309-42.727-3.148-85.418-4.172-128.184-1.027-42.914-1.457-85.383-.691-128.328.559-31.543.602-65.602-5.004-97.641-1.883 163.801-4.516 328.391.441 492.114.285 9.281 10.633 2.242 17.266-3.27 7.938-6.598 15.109-11.859 25.516-13.496 9.137-1.434 17.152 2.75 24.516 7.602 5.496 3.625 10.852 9.328 14.816 14.461 11.148 14.398 23.336-4.441 29.5-9.094 22.09-16.684 45.324-11.055 62.953 9.664 7.777 9.148 35.16-15.98 44.117-17.254 10.567-1.496 21.735-2.535 31.516 3.086 6.277 3.605 24.754 21.258 31.82 14.168 4.43-4.438 9.113-9.758 14.641-12.949 8-4.613 17.023-9.016 26.609-7.066 12.051 2.461 22.918 9.09 30.586 18.914 12.473 15.973 33.004-14.547 43.676-18.766 9.344-3.695 20.094-4.531 29.043 1.238 2.844 1.832 11.98 8.547 19.402 13.203-3.429-3.856-6.757-7.813-9.929-12.059z" fill="#ffa222"/><path d="m417.222 187.045c7.352-30.215 48.324-25.133 72.305-22.477 34.668 3.828 31.188 46.715 29.031 72.969-.047.582-.176 1.102-.297 1.629-.027.395-.012.773-.078 1.176-.832 4.977-2.512 8.977-4.781 12.316 5.672-4.355 8.254-11.488 9.191-19.832 1.871-16.691 3.645-40.777-4.313-56.484-7.301-14.418-20.02-17.191-35.324-18.59-16.402-1.504-36.164-3.152-51.574 3.75-10.902 4.879-13.652 17.996-14.879 29.25.219-1.242.423-2.492.719-3.707z" fill="#ffa222"/><path d="m518.281 315.342c-7.301-14.418-20.02-17.191-35.324-18.59-16.402-1.504-36.164-3.148-51.574 3.75-10.938 4.891-13.672 18.063-14.891 29.34.223-1.266.434-2.531.73-3.762 7.352-30.223 48.324-25.129 72.305-22.473 34.668 3.836 31.188 46.703 29.031 72.965-.047.582-.176 1.102-.297 1.629-.027.395-.012.77-.078 1.172-.824 4.934-2.48 8.898-4.707 12.215 5.617-4.355 8.188-11.457 9.117-19.762 1.872-16.69 3.645-40.777-4.312-56.484z" fill="#ffa222"/><path d="m583.332 159.909c-.094-16.941-.188-33.891-.41-50.832-.047-3.664-.41-16.953-.25-18.059-3.309-7.891-27.758 14.422-32.551 16.414-9.367 3.895-17.16 3.875-26.527.176-11.961-4.727-28.871-33.922-43.676-18.766-9.039 9.254-17.691 16.273-30.586 18.91-9.586 1.953-18.609-2.453-26.609-7.066-5.25-3.031-10.773-8.402-14.641-12.945-7.238-8.516-19.703 7.203-24.219 9.797-23.242 13.359-47.883 10.004-67.875-8.664-10.992-10.258-43.91 26.855-65.391 16.539-18.418-8.852-28.208-28.504-49-9.781-7.133 6.418-14.75 13.316-24.719 14.496-9.617 1.141-17.176-1.59-25.172-6.602 4.324 5.855 10.039 10.852 15.906 12.723 16.707 5.348 28.949-8.863 43.773-14.078 16.575-5.82 33.489 18.824 51.633 16.281 9.27-1.305 16.5-4.945 24.766-9.207 19.145-9.871 32.414-3.207 49.867 5.441 12.988 6.43 25.512 7.332 38.477.801 12.012-6.059 20.016-13.41 34.516-9.738 9.586 2.426 18.008 9.031 27.375 12.32 13.688 4.801 26.051-2.52 37.563-9.016 23.016-13.008 35.793 9.051 57.016 11.246 15.09 1.559 39.922-21.07 41.133 7.777.324 7.672.277 15.371.352 23.051.281 29.965.363 59.938.559 89.906.516 77.309 2.023 154.618 4.168 231.899.711 25.629 2.203 51.18 4.535 76.645.578-79.887.449-159.781.375-239.661-.041-50.003-.115-100.011-.388-150.007z" fill="#fbe134"/><g fill="#68182b"><path d="m385.234 237.44c-61.61-1.629-123.668-1.992-185.224 1.293-8.16.434-8.117-12.223 0-12.656 61.555-3.285 123.614-2.922 185.224-1.293 8.145.218 8.168 12.875 0 12.656z"/><path d="m385.234 204.85c-61.61-1.629-123.668-1.992-185.224 1.293-8.16.434-8.117-12.223 0-12.656 61.555-3.285 123.614-2.922 185.224-1.293 8.145.219 8.168 12.875 0 12.656z"/><path d="m385.234 376.479c-61.61-1.625-123.668-1.988-185.224 1.293-8.16.438-8.117-12.219 0-12.656 61.555-3.281 123.614-2.918 185.224-1.293 8.145.219 8.168 12.875 0 12.656z"/><path d="m385.234 343.893c-61.61-1.629-123.668-1.992-185.224 1.289-8.16.438-8.117-12.219 0-12.656 61.555-3.281 123.614-2.918 185.224-1.289 8.145.215 8.168 12.871 0 12.656z"/><path d="m385.234 515.515c-61.61-1.629-123.668-1.988-185.224 1.293-8.16.434-8.117-12.223 0-12.656 61.555-3.281 123.614-2.922 185.224-1.293 8.145.218 8.168 12.874 0 12.656z"/><path d="m385.234 482.925c-61.61-1.629-123.668-1.988-185.224 1.293-8.16.434-8.117-12.223 0-12.656 61.555-3.281 123.614-2.922 185.224-1.293 8.145.218 8.168 12.875 0 12.656z"/></g></g></g></svg>