<svg width="1200" height="320" viewBox="0 0 1200 320" fill="none" xmlns="http://www.w3.org/2000/svg">
<g opacity="0.08">
<g clip-path="url(#clip0)">
<path d="M-324.525 330.201C-319.909 311.153 -299.523 297.147 -279.522 299.014C-263.367 300.508 -249.52 310.779 -236.057 319.37C-222.403 328.147 -206.055 335.804 -190.478 331.695C-180.477 329.081 -172.399 321.984 -165.476 314.701C-155.283 304.057 -146.051 292.291 -138.359 279.779C-134.128 272.87 -130.089 265.587 -123.935 260.171C-117.78 254.755 -108.741 251.58 -101.048 254.568C-93.1633 257.556 -89.1246 265.773 -83.1626 271.562C-73.5466 280.9 -58.9303 283.701 -45.6601 281.273C-32.39 278.846 -20.6585 271.562 -10.4655 262.785C6.4587 248.032 19.7288 226.37 14.9208 204.707C10.8821 186.592 -5.27283 172.96 -12.9657 155.592C-20.8508 137.291 -18.3506 115.255 -6.42676 99.1943C4.5355 84.2545 22.6136 74.7303 30.6911 58.1098C35.6914 47.8387 36.0761 35.8868 35.3068 24.4952C33.1913 -13.6013 18.3826 -50.5774 -5.8498 -80.2703" stroke="white" stroke-miterlimit="10"/>
<path d="M1043.26 -9.86658C1027.87 3.57926 1015.76 20.9468 1007.1 39.2481C1005.37 42.983 1003.64 46.9047 1002.1 50.8264C996.14 65.5795 991.909 81.6398 992.102 97.5134C992.102 100.315 992.294 103.303 992.678 106.104C993.832 116.001 997.102 125.526 1001.91 134.489C1002.29 135.236 1002.87 135.983 1003.26 136.917C1012.68 152.791 1026.72 166.61 1036.14 181.176C1042.1 190.14 1045.37 198.917 1051.14 205.827C1060.95 217.592 1075.76 225.062 1092.3 228.424C1098.07 229.544 1104.22 229.917 1110.38 229.544C1121.15 228.984 1133.26 226.556 1143.46 231.972C1154.61 237.948 1158.46 251.954 1157.11 263.906C1155.77 275.671 1150.77 286.502 1148.46 298.267C1148.07 300.135 1147.88 301.815 1147.69 303.683C1146.53 313.954 1147.88 324.972 1153.27 333.749C1155.96 338.044 1159.42 341.779 1163.65 344.581C1178.84 354.478 1200.19 351.304 1218.66 352.051C1227.31 352.424 1235.58 353.731 1242.5 358.213C1245.96 360.454 1248.85 363.255 1251.35 366.43C1256.93 373.9 1259.43 383.611 1260.58 392.948C1261.93 403.033 1261.93 413.117 1264.43 422.454C1265.2 425.442 1266.16 428.244 1267.5 431.045C1278.08 454.762 1308.08 465.593 1337.51 473.25C1355.2 477.918 1371.36 483.521 1388.09 488.19C1401.17 491.738 1414.63 494.726 1428.28 498.274C1442.9 502.009 1458.09 506.491 1472.13 512.093C1487.9 518.443 1502.52 526.473 1511.75 540.105" stroke="white" stroke-miterlimit="10"/>
<path d="M946.714 -56.927C921.135 -38.8125 904.596 -10.4268 895.557 19.0793C893.633 25.242 892.095 31.4047 890.749 37.5674C885.748 61.2843 884.21 85.7483 884.402 110.212C884.402 114.507 884.402 118.989 884.787 123.285C885.556 138.598 887.864 153.724 894.595 167.357C895.172 168.664 895.749 169.785 896.518 171.092C909.981 195.556 935.559 214.978 941.137 241.122C944.598 257.369 938.829 272.683 937.29 287.809C935.559 303.87 939.021 321.611 952.291 333.749C956.907 338.044 962.676 341.219 968.831 343.647C980.178 348.129 993.255 350.557 1004.22 357.653C1015.76 365.123 1022.68 377.448 1026.53 389.774C1030.37 401.912 1031.53 414.424 1033.26 427.31C1033.45 429.364 1033.84 431.232 1034.03 433.286C1035.76 444.304 1038.26 455.882 1045.18 464.846C1048.64 469.328 1052.87 472.69 1057.88 475.304C1074.99 484.268 1098.07 481.467 1117.88 479.039C1127.11 477.918 1136.34 476.985 1144.8 478.665C1149.23 479.412 1153.27 480.906 1157.3 482.961C1166.54 487.816 1172.88 496.22 1178.65 504.81C1184.81 513.961 1190.58 523.485 1198.65 530.021C1201.35 532.075 1204.04 533.943 1206.92 535.437C1231.35 547.949 1265.77 537.491 1297.31 546.642C1319.05 552.991 1334.43 569.238 1351.36 582.31C1364.63 592.395 1379.63 600.985 1395.59 608.082C1412.71 615.552 1431.36 621.527 1449.82 625.449C1470.4 629.931 1491.75 632.359 1507.52 645.431" stroke="white" stroke-miterlimit="10"/>
<path d="M306.094 1069.54C286.862 1052.17 285.516 1022.48 292.055 997.451C298.594 972.427 311.287 949.083 315.71 924.059C317.826 911.92 318.98 897.914 322.826 886.149C326.288 875.318 332.057 866.354 342.827 862.059C349.943 859.258 358.213 859.258 365.329 856.27C384.561 847.679 384.561 823.775 386.869 802.486C387.253 799.685 387.446 796.884 388.023 794.083C391.869 770.739 406.293 749.45 408.793 725.92C411.101 705.004 405.139 684.835 400.139 664.48C398.023 656.076 395.908 647.299 394.754 638.522C393.6 629.371 393.6 620.594 395.139 612.19C396.1 606.775 397.639 601.546 399.37 596.69C406.678 574.467 419.948 553.738 433.41 532.449C441.103 520.31 448.988 508.172 455.527 494.726C460.72 484.081 464.951 473.063 467.451 461.485C469.374 453.455 469.374 445.238 468.797 437.208C468.22 428.244 466.682 419.28 466.105 410.316C465.72 402.846 465.72 396.31 467.836 389.587C468.99 386.039 471.105 383.238 472.644 380.063C473.99 377.262 475.144 374.274 474.952 370.352C473.99 357.84 468.605 345.701 463.22 334.123C454.181 314.514 445.334 294.906 436.487 275.297C432.256 265.773 427.833 256.249 423.602 246.725C416.871 231.972 410.332 217.219 403.601 202.466C400.139 194.809 396.485 186.592 397.062 178.375C397.446 172.586 399.562 167.357 402.254 162.128C404.562 157.46 407.062 152.978 408.986 148.122C409.178 147.749 409.37 147.188 409.37 146.815C411.101 142.146 412.063 137.291 413.024 132.622C414.755 123.658 415.717 114.694 420.14 107.224C428.218 93.4051 445.911 87.0557 462.835 86.122C479.567 85.375 496.491 87.9894 513.416 84.0677C515.147 83.6942 517.07 83.134 518.801 82.5737C522.839 81.0798 526.493 79.2123 529.378 77.1581C531.301 75.8508 533.032 74.5436 534.571 73.0496C537.648 70.2484 540.918 67.0737 543.995 63.5255C554.38 51.5736 562.457 36.4471 569.381 19.453C579.766 -6.13143 588.228 -34.8906 591.69 -61.969" stroke="white" stroke-miterlimit="10"/>
<path d="M369.945 1063.37C355.521 1046.38 354.367 1020.79 359.752 998.758C365.329 976.722 376.291 955.806 382.83 934.704C386.1 924.432 388.984 913.228 393.792 903.704C398.023 895.113 403.985 888.017 413.217 883.908C419.563 881.107 426.487 880.547 432.641 877.559C449.565 869.529 453.219 851.227 457.45 833.113C458.027 830.685 458.604 828.257 459.181 826.016C464.182 805.848 474.375 786.426 476.683 765.51C478.99 743.474 475.913 721.624 473.221 699.775C472.259 691.184 469.951 681.474 469.182 671.949C468.413 662.052 469.182 652.528 473.221 644.871C475.913 639.829 479.375 636.467 482.837 633.106C496.876 618.913 518.031 606.775 537.071 590.527C548.226 581.19 558.611 570.172 566.112 555.792C571.881 544.588 575.343 532.449 576.689 520.124C577.651 511.533 576.882 502.756 575.151 494.352C573.42 485.015 570.727 475.864 568.419 466.9C566.689 459.431 564.958 452.708 564.958 445.985C564.958 442.25 565.535 439.262 565.727 435.9C565.919 432.912 565.919 429.738 564.958 425.816C561.688 413.117 555.534 400.605 549.572 388.466C539.571 367.924 529.955 347.008 520.339 326.279C515.724 316.195 511.108 306.111 506.3 296.026C498.992 280.339 491.876 264.839 484.568 249.153C480.721 240.936 477.067 232.532 475.913 224.128C475.144 218.152 475.529 212.55 476.298 206.948C476.875 201.905 477.644 196.863 478.99 191.448C479.183 191.074 479.183 190.514 479.375 190.14C480.721 185.098 482.644 180.056 484.568 175.387C488.414 166.05 492.261 158.206 498.415 152.231C509.762 141.212 528.417 138.224 546.495 141.026C568.804 144.574 590.729 151.857 613.999 143.827C616.307 143.08 618.615 141.959 620.731 140.652C625.731 137.477 629.193 133.182 629.962 128.887C630.539 126.086 629.962 124.032 629.77 121.417C629.577 116.748 630.347 111.146 631.308 105.357C634.001 85.5616 635.155 63.1519 639.578 39.2482C646.502 2.6456 661.695 -34.7039 674.003 -69.9993" stroke="white" stroke-miterlimit="10"/>
<path d="M476.49 1053.1C469.759 1036.85 469.182 1018.18 473.028 1000.81C476.875 983.445 484.952 966.824 495.145 952.258C500.338 944.975 506.107 938.252 512.839 932.463C518.416 927.607 524.57 923.499 531.494 919.95C536.302 917.523 541.11 915.469 545.918 912.854C558.803 905.944 568.996 896.607 576.112 884.282C577.074 882.601 578.035 880.92 578.805 879.053C585.92 864.3 588.998 847.679 590.536 831.245C592.844 806.968 594.383 782.691 595.921 758.6C596.498 750.01 594.383 738.618 594.19 727.6C593.998 716.395 595.921 705.938 604.191 699.401C609.384 695.293 616.307 694.546 622.846 693.986C647.078 692.118 682.273 695.48 711.121 687.263C728.045 682.594 742.662 673.817 751.701 657.383C758.432 645.245 760.547 631.425 759.778 617.606C759.201 608.082 756.893 598.558 753.816 589.78C750.162 579.883 745.546 570.359 740.354 561.208C736.315 553.925 732.084 546.829 728.045 539.732C725.93 535.997 724.007 532.262 721.891 528.527C719.968 525.166 718.237 521.618 716.121 518.069C709.006 505.184 701.505 491.925 694.582 478.666C682.85 456.443 672.08 433.659 661.118 411.063C655.925 400.045 650.54 389.027 645.348 378.195C637.27 361.201 629 344.02 620.923 327.026C616.692 318.063 612.461 309.099 608.614 300.321C605.922 293.972 603.422 287.809 601.114 281.647C598.998 276.044 596.69 270.068 597.267 263.906C597.267 263.345 597.46 262.785 597.46 262.412C598.421 256.809 601.498 251.58 605.153 247.098C612.845 237.388 621.115 231.412 629.962 227.863C647.078 221.514 666.887 225.062 686.889 232.719C718.237 244.857 749.008 258.677 782.664 243.55C785.934 242.056 789.011 240.002 791.511 237.387C797.858 231.412 801.319 222.821 798.627 215.351C796.896 210.309 792.857 206.761 789.588 202.466C783.626 194.622 780.549 184.911 777.664 175.387C767.471 142.333 756.893 108.345 757.278 72.8628C757.855 17.7722 784.972 -33.9569 811.897 -82.5114" stroke="white" stroke-miterlimit="10"/>
<path d="M651.31 306.297C665.734 351.864 704.198 386.599 722.853 430.485C728.046 442.81 731.7 455.509 735.931 468.208C740.931 483.147 746.701 498.087 753.24 512.467C755.74 518.069 759.009 524.045 765.163 525.726C771.51 527.407 778.049 523.298 781.703 518.069C785.357 512.84 787.088 506.491 789.973 500.888C798.627 483.708 818.821 472.69 838.438 474.557C854.208 476.051 869.401 483.521 885.556 482.961C895.557 482.587 900.942 476.238 898.057 466.527C896.711 462.045 893.826 458.123 890.749 454.388C877.863 438.141 861.901 423.388 853.246 404.527C843.63 383.611 847.092 361.014 847.092 338.791C849.784 328.334 852.477 317.129 848.246 307.231C842.861 294.719 828.052 288.93 814.205 287.809C800.358 286.876 786.511 289.49 772.664 287.996C746.124 285.382 723.045 268.574 696.89 264.092C663.618 258.303 640.347 271.375 651.31 306.297Z" stroke="white" stroke-miterlimit="10"/>
<path d="M710.544 321.424C709.775 313.581 711.698 307.978 716.506 304.804C721.507 301.442 728.815 300.695 737.085 302.376C750.355 305.177 762.086 313.767 774.203 317.502C780.934 319.557 787.28 320.677 793.627 323.105C799.973 325.533 806.705 329.828 809.974 336.551C810.359 337.484 810.743 338.418 811.128 339.352C812.474 344.021 812.474 348.689 812.474 353.171C814.782 364.75 815.936 376.328 821.513 387.533C824.014 392.388 826.898 396.87 829.783 401.352C833.053 406.394 836.13 411.436 838.822 416.665C839.976 418.906 841.13 421.147 841.515 423.762C841.899 425.256 841.899 426.563 841.707 427.87C841.13 431.045 839.207 433.286 835.745 434.033C831.129 435.153 826.129 434.406 821.321 433.659C818.052 433.099 814.782 432.726 811.513 432.726C801.32 432.539 790.934 437.394 784.972 444.864C783.049 447.292 781.703 450.28 779.395 452.334C775.933 455.322 771.125 456.816 766.894 455.882C762.471 454.949 759.394 451.774 757.278 448.039C755.355 444.491 753.624 440.382 752.47 435.9C750.739 429.178 749.393 422.828 748.047 416.479C746.124 407.888 744.008 399.298 739.777 389.774C729.007 366.43 712.66 344.581 710.544 321.424Z" stroke="white" stroke-miterlimit="10"/>
<path d="M136.083 125.899C153.969 104.983 173.97 85.1882 198.202 71.3688C218.396 59.7905 241.859 52.6941 264.938 53.8145C269.553 54.0013 274.169 54.5615 278.592 55.4953C305.902 61.0977 330.326 81.2665 336.865 107.224C344.751 138.971 327.634 168.664 317.056 198.917C311.094 215.538 308.017 233.466 307.44 251.207C307.056 264.092 308.21 276.978 310.71 289.49C318.403 326.653 344.174 356.346 347.443 395.563C349.366 418.159 344.943 471.382 336.288 528.714C330.134 569.238 322.249 611.63 312.441 646.739C300.517 688.757 286.477 719.944 271.669 721.624C256.283 723.305 245.898 707.618 238.974 694.733C229.935 678.112 223.204 659.624 213.396 642.257C210.318 636.841 207.049 631.612 203.395 626.57C185.317 602.293 158.584 584.925 131.852 569.798C114.735 560.088 96.6571 552.244 77.8096 547.202C72.4247 545.708 66.8474 544.401 61.2701 543.467C47.2307 541.039 31.845 540.106 21.4597 530.955C13.7669 524.232 11.2667 513.961 6.84336 505.184C-2.38802 486.322 -20.0815 471.382 -39.5059 465.593C-49.8912 462.419 -60.2765 461.672 -70.2772 458.87C-87.3937 454.202 -111.241 441.876 -122.204 427.87C-132.397 414.611 -124.127 387.159 -117.203 372.406C-115.857 369.605 -114.511 366.804 -112.011 364.749C-105.664 359.707 -96.0481 361.948 -87.586 362.135C-68.9309 362.509 -56.0454 351.864 -40.8521 343.647C-37.9673 342.153 -34.8902 340.659 -31.8131 339.165C-17.5813 332.816 -2.58034 327.773 10.6898 319.183C33.5759 304.43 51.6541 284.074 66.8474 262.225C74.5402 251.02 81.4637 239.442 87.8103 227.863C91.6567 220.767 94.9262 213.484 98.0033 206.014C109.543 178.002 117.043 148.309 136.083 125.899Z" stroke="white" stroke-miterlimit="10"/>
<path d="M60.6932 399.485C75.5019 398.924 90.6952 401.539 104.927 397.617C123.774 392.388 137.429 376.515 149.161 361.201C155.315 353.358 161.277 345.328 164.739 336.177C169.547 323.478 168.97 309.472 170.508 296.026C172.047 282.58 176.855 268.201 188.586 260.918C196.087 256.249 205.703 255.129 213.973 258.117C234.551 265.213 240.128 291.544 235.897 312.46C231.666 333.376 221.281 353.358 222.627 374.647C223.589 389.96 230.897 404.153 236.09 418.72C240.898 431.792 243.975 445.424 245.513 459.244C246.667 469.328 246.667 480.16 240.705 488.376C230.512 502.569 208.203 501.822 192.24 494.539C176.278 487.256 162.623 474.931 145.699 469.702C129.352 464.66 111.85 466.714 94.9263 468.394C78.0021 470.075 60.1163 471.009 44.5383 464.286C2.99706 445.985 19.3443 401.165 60.6932 399.485Z" stroke="white" stroke-miterlimit="10"/>
<path d="M1129.61 -13.228C1115.57 3.01902 1105.57 30.4709 1102.11 51.1999C1098.84 70.8085 1102.3 92.4712 1116.34 107.038C1128.65 119.923 1146.73 125.339 1163.46 131.501C1187.88 140.652 1212.12 152.977 1228.46 172.959C1239.04 186.032 1245.77 202.839 1245.39 219.646C1245 234.399 1225.96 248.592 1236.73 263.159C1241.35 269.321 1248.85 272.683 1256.54 274.363C1264.04 276.231 1271.93 276.604 1279.43 278.659C1327.7 290.984 1303.08 337.111 1326.55 366.057C1334.82 376.328 1349.24 378.942 1362.51 380.623C1388.09 383.611 1413.86 385.105 1439.63 384.731" stroke="white" stroke-miterlimit="10"/>
<path d="M1088.65 19.4529C1080.95 31.4047 1071.91 42.7963 1067.11 56.0554C1058.26 79.7724 1063.84 107.224 1079.03 127.767C1094.22 148.122 1118.26 161.568 1143.65 166.423C1149.42 167.544 1155.38 168.104 1160.77 166.05C1166.15 163.809 1170.19 157.833 1168.46 152.604C1161.15 131.688 1128.07 131.315 1112.11 119.363C1079.22 94.7122 1079.61 34.9529 1099.8 3.39258" stroke="white" stroke-miterlimit="10"/>
<path d="M346.289 245.791C350.328 267.267 361.867 286.502 371.868 306.111C396.869 354.852 412.255 412.37 393.6 463.726C392.446 466.714 391.292 469.889 391.677 473.063C392.254 476.238 395.139 479.413 398.408 478.852C400.139 478.479 401.485 477.358 402.639 476.238C412.64 465.967 415.525 451.027 415.14 437.021C414.755 423.015 411.678 409.009 411.486 395.003C411.293 368.298 422.063 341.406 415.525 315.448C408.793 289.49 385.715 270.068 377.637 244.484C374.56 234.773 373.214 189.954 359.559 189.767C341.673 189.58 344.558 236.454 346.289 245.791Z" stroke="white" stroke-miterlimit="10"/>
<path d="M36.0761 -86.2462C64.7318 -40.3063 67.8089 19.8265 43.9612 68.3809C33.9605 88.7364 19.7288 107.038 12.6129 128.514C5.49708 149.99 8.38188 176.881 27.2293 190.14C28.3832 191.074 29.7295 191.821 31.268 192.008C34.5375 192.381 37.23 189.954 39.3455 187.526C50.8847 174.08 54.7311 156.152 60.3084 139.532C66.655 120.857 75.6941 103.116 87.2333 86.8689C106.85 59.0435 133.006 36.0735 154.161 8.9951C175.316 -18.0833 191.279 -51.3244 185.894 -84.7522" stroke="white" stroke-miterlimit="10"/>
<path d="M79.1561 -65.5174C87.2336 -38.2522 87.6182 -8.93284 80.31 18.5191C68.9631 61.471 39.7304 98.8206 31.076 142.52C30.3067 146.441 32.2299 152.417 35.884 150.736C37.0379 150.176 37.6149 149.056 38.1918 148.122C51.8466 123.285 59.1548 95.2724 75.8867 72.3024C85.5027 59.6036 97.6189 48.7722 107.62 36.4468C131.852 6.56721 142.814 -33.21 137.429 -70.7463" stroke="white" stroke-miterlimit="10"/>
<path d="M396.293 -30.222C385.138 -11.3605 378.599 9.92871 377.253 31.5914C376.868 36.6336 376.868 42.0493 379.561 46.3445C382.253 51.0132 387.446 53.8144 392.446 55.8687C401.101 59.4169 411.101 61.8446 419.948 58.6699C424.948 56.8024 429.179 53.4409 434.18 51.3867C450.527 44.6638 470.913 55.1217 486.876 47.2783C495.145 43.1698 500.53 34.9529 503.992 26.736C506.492 20.7601 508.415 14.4107 508.031 8.06124C507.646 1.71181 504.569 -4.82436 498.992 -8.37256" stroke="white" stroke-miterlimit="10"/>
</g>
</g>
<defs>
<clipPath id="clip0">
<rect width="1200" height="320" fill="white"/>
</clipPath>
</defs>
</svg>
