<svg id="Music" height="512" viewBox="-70.866 -70.866 850.394 850.394" width="512" xmlns="http://www.w3.org/2000/svg"><g><path d="m710.766 252.852c-27.609-43.481-135.66-32.235-183.938-26.055-2.625.41-5.52.867-8.539 1.352 21.727-11.941 34.258-33.668 32.777-57.984-.918-15.379-8.293-43.066-47.48-55.684-7.035-2.348-11.578-14.746-13.395-23.215-2.059-9.512-6.336-29.293-28.031-42.004-33.141-20.434-83.148-1.965-91.379 35.895-4.734 18.43-10.344 31.258-28.078 37.461 2.977-99.098-62.015-139.723-157.417-100.282-45.453 14.5-88.496 35.922-132.121 66.82-98.02 55.957-50.5 194.801-26.219 282.648-39.129 36.719-51.82 99.543-27.781 147.734 15.008 31.121 42.043 48.973 74.164 48.973 11.711 0 23.543-2.527 35.063-6.777-.152 4.945.285 9.941 1.473 14.926 4.828 20.293 20.895 38.219 42.82 47.867 3.762 2.109 10.691 13.344 11.813 22.691 6.617 37.676 33.156 52.707 61.148 54.02 29.063 0 55.867-19.047 63.73-45.285 3.699-12.367 9.559-23.203 17.871-33.055 3.566 6.199 7.656 13.18 13.207 18.559 48.969 55.793 147.801 17.242 176.625-35.414 12.32 31.285 45.582 50.316 79.602 48.895 63.383 0 119.008-47.68 123.992-106.281 2.414-28.273 3.328-56.418 4.211-83.629 1.57-48.055 3.055-93.441 12.105-138.558 3.922-19.262 10.672-47.727-6.223-73.618zm-523.863 125.187c-.52-1.23-1.031-2.449-1.543-3.664-12.164-28.878-22.367-59.859-30.434-88.617-3.273-11.809-5.809-23.883-8.016-35.461 18.84-12.227 43.465-20.125 68.086-27.348 4.895 19.715 11.207 47.45 14.938 69.176-24.191 20.934-39.777 53.333-43.031 85.914zm138.422 132.41c-7.406-4.422-14.418-6.836-18.441-8.199-5.863-1.57-9.563-7.699-12.414-14.66 26.848-4.715 53.797-21.172 75.137-46.27-.164 10.996-.105 22 .457 33.02-16.024 7.691-29.751 16.301-44.739 36.109zm63.734-203.077c-1.754-4.637-3.52-9.223-5.313-13.75 6.837 6.031 9.876 4.937 5.313 13.75zm168.25 156.171c-15.543 7.199-32.566 21.746-43.117 36.02-.93-21.004-2.645-43.305-1.141-62.473.547-8.371 1.273-19.512 2.684-24.266.848-.301 2.18-.691 4.137-1.074 61.301-7.637 38.847-5.121 37.437 51.793z" fill="#fff"/><g><path d="m269.333 449.766c-61.941-13.465-53.066-96.425-13.41-129.507.277-.238.574-.383.859-.586.406-.363.793-.738 1.273-1.07 11.223-7.664 11.785-21.941 8.914-37.156-2.977-15.773-16.102-80.422-23.609-95.821-4.543-9.301-11.633-7.426-21.871-4.422-33.223 9.723-68.84 19.109-97.387 38.297-12.891 8.664-19.305 13.535-16.102 30.93 2.82 15.293 5.887 30.547 10.047 45.551 7.297 26.32 15.93 52.16 25.688 77.671 11.461 29.945 29.117 59.016 16.77 90.871-16.313 42.09-96.664 101.02-126.871 38.391-12.609-26.133-10.883-58.625 4.277-83.801 7.148-11.863 15.512-20.195 25.871-29.34 7.824-6.902 4.195-12.957 2.363-19.723-16.754-61.914-40.594-130.429-32.078-194.613 3.406-25.676 21.301-40.969 41.195-55.043 34.832-24.641 73.004-45.438 113.641-58.852 25.789-8.516 71.625-28.207 96.129-5.551 26.453 24.469 16.203 68.824 21.301 101.355 6.617 42.266 17.363 83.563 31.668 123.879 8.164 22.992 19.09 45.926 24.961 69.656 10.679 43.149-48.168 108.77-93.629 98.884zm394.629-184.641c-43.859-8.188-87.262-7.324-131.266-.508-29.488 4.574-68.563 11.547-92.313 31.242-19.848 16.453-23.617 59.808-27.227 82.695-5.586 35.477-6.859 71.793-3.973 107.566.785 9.73-6.164 15.027-14.074 18.754-18.266 8.594-30.395 12.258-49.086 43.313-10.68 17.754-14.102 50.223 1.82 66.547 20.07 20.57 45.973 19.648 70.969 8.719 29.203-12.77 50.223-32.762 55.387-64.75 6.246-38.707-2.098-82.238.508-121.719 2.16-32.773 2.809-55.93 37.797-62.785 23.586-4.629 48.883-3.039 72.777-2.57 14.082.273 17.617 10.355 17.391 22.68-.223 12.32-5.238 39.188-7.969 83.32-.324 5.164-2.465 9.566-5.906 12.902-2.598 2.512-17.898 7.301-28.773 16.301-15.352 12.703-26.188 28.59-31.586 50.004-5.242 20.773 6.016 50.77 28.031 57.074 45.012 12.871 102.023-20.871 106.078-68.496 6.457-75.887 1.813-151.172 16.922-226.48 3.54-17.621 11.5-48.766-15.507-53.809zm-294.336-64.094c17.996 7.93 30.707 32.582 32.922 51.016.953 7.969 4.473 11.527 10.508 16.137 12.457 9.535 34.57.129 38.746-13.793 5.398-18.036 14.324-33.899 26.859-47.934 5.016-5.609 12.605-7.629 19.203-10.645 8.34-3.832 15.734-11.352 15.004-23.375-.805-13.52-11.512-18.473-20.949-21.512-20.613-6.598-31.613-24.961-37.613-45.324-2.73-9.266-2.156-17.855-11.484-23.32-11.918-6.98-31.27-2.434-34.914 12.156-4.305 17.223-11.305 32.793-22.426 46.754-8.582 10.766-23.238 10.805-31.789 21.191-13.286 16.138 1.405 32.243 15.933 38.649zm-76.199 337.059c-20.785-7.113-31.984-25.938-38.121-46.781-2.797-9.488-2.164-18.305-11.711-23.895-12.137-7.113-31.848-2.5-35.57 12.359-4.473 17.867-11.75 34.008-23.289 48.488-8.879 11.133-24.035 11.18-32.867 21.918-13.59 16.512 1.621 32.891 16.402 39.406 18.73 8.246 31.918 33.883 34.223 53.055.973 8.109 4.555 11.688 10.684 16.383 12.691 9.711 35.281.145 39.539-14.055 5.602-18.707 14.855-35.168 27.867-49.723 8.297-9.285 23.539-9.043 30.25-18.844 3.746-5.473 5.309-10.957 5.02-16.027-.888-15.503-11.951-18.698-22.427-22.284z" fill="#68182b"/><path d="m90.278 396.293c6.871-11.734-4.934-36.156-7.965-47.347-9.254-34.125-17.75-68.398-23.77-103.254-3.5-20.278-5.246-40.653-4.586-61.2.848-26.184 22.094-38.91 41.02-52.293 39.707-28.094 85.289-47.559 132.113-60.039 17.152-4.574 49.531-14.895 53.281 18.645 1.289 11.566.664 23.781 1.434 35.441 1.523 23.133 5.395 46.152 9.871 68.871 7.172 36.414 18.734 71.879 31.363 106.715 7.281 20.074 23.898 47.172 19.406 69.015-5.859 28.512-55.113 75.707-85.598 50.516-26.734-22.09-7.398-67.613 13.273-85.531 24.398-16.906 26.852-24.934 17.418-54.215-10.617-32.961-15.75-67.758-22.75-101.583-10.293-49.719-92.707-6.176-118.609 4.906-21.176 9.063-43.48 19.188-56.727 38.863-16.121 23.938 7.281 75.208 14.359 99.071 9.984 33.648 23.82 65.929 35.719 98.902 6.117 16.953 6.391 26.078-2.949 43.078-13.973 25.449-60.867 66.09-84.734 27.414-14.332-23.223-1.664-57.223 13.754-76.238 6.326-7.792 19.814-11.436 24.677-19.737z" fill="#5cffcd"/><path d="m623.477 383.801c3.699-49.949-75.926-34.691-106.367-31.41-16.477 1.773-39.063 5.546-49.727 20.007-17.355 23.551-14.504 69.242-15.281 96.898-1.039 37 13.133 91.246-15.973 119.082-16.668 15.945-64.656 39.617-76.805 2.418-8.777-26.867 18.602-57.043 41.203-65.824 13.344-5.176 32.828-11.141 30.68-30.469-4.422-39.848-2.48-80.055 3.758-119.613 5.402-34.304 10.777-64.785 47.395-75.957 47.891-14.613 95.891-21.324 145.953-17.863 36.832 2.551 31.914 25.02 27.082 51.91-3.18 17.699-5.109 35.648-6.902 53.531-3.758 37.594-4.594 75.449-5.438 113.195-.488 21.539 3.961 50.711-10.332 68.555-12.383 15.477-37.551 27.105-56.996 28.047-54.992 2.664-14.781-70.129 8.898-79.859 21.527-6.512 31.883-11.383 31.285-34.922-.831-32.843 5.153-65.109 7.567-97.726z" fill="#00ebed"/><path d="m483.11 175.141c-8.949 5.957-21.988 19.34-24.574 22.234-9.801 10.961-17.664 25.066-22.809 38.797-9.813 26.215-18.727-10.723-23.301-19.703-8.141-15.977-22.492-29.391-38.746-36.563-9.797-4.32 6.992-8.762 7.727-9.152 7.41-3.98 13.043-8.605 18.984-14.652 12.879-13.098 20.387-31.566 26.012-48.695 5.66-17.25 9.559 10.582 10.086 12.375 2.793 9.48 8.441 18.152 14 26.145 8.172 11.746 19.59 19.945 32.746 24.434 3.574 1.213 3.863 2.123-.125 4.78z" fill="#ffc522"/><path d="m282.251 565.848c-8.836 7.047-19.793 18.066-21.973 20.508-10.086 11.293-18.195 25.824-23.488 39.965-5.852 15.629-11.484 10.094-16.125.648-3.586-7.293-6.578-16.91-8.629-20.93-8.395-16.48-23.18-30.289-39.941-37.68-10.957-4.824 7.344-9.75 7.988-10.094 7.645-4.098 13.438-8.852 19.566-15.086 13.27-13.5 21.008-32.539 26.809-50.191 6.129-18.641 10.617 11.094 11.117 12.789 2.879 9.773 8.711 18.715 14.441 26.945 7.734 11.129 18.301 19.152 30.488 23.941 9.614 3.786 6.61 3.72-.253 9.185z" fill="#ff2e60"/><path d="m260.278 586.355c2.125-2.375 12.566-12.875 21.277-19.934-.219.059-.438.086-.656.145-9.488 2.504-18.266 7.785-26.242 13.297-14.699 10.148-27.301 29.234-46.359 10.5-9.031-8.879-19.777-19.809-32.215-20.027 15.09 7.719 28.234 20.555 35.953 35.703 2.051 4.02 5.043 13.637 8.629 20.93 4.641 9.445 10.273 14.98 16.125-.648 5.293-14.141 13.402-28.673 23.488-39.966z" fill="#ea0f4d"/><path d="m220.157 538.332c-2.313 3.41-4.941 6.613-8.012 9.68-2.684 2.684-7.055 6.961-6.906 11.172.273 8.035 8.289 20.961 17.434 21.199 9.824.25 23.82-9.742 26.723-19.387 2.727-9.063-3.102-16.336-9.84-22.934-10.68-10.445-13.036-9.117-19.399.27z" fill="#f69"/><path d="m475.677 180.879c-13.344 5.301-25.031 15.664-35.492 24.934-17.406 15.41-33.973-11.859-46.875-18.75-4.719-2.523-9.512-4.094-14.426-4.582 14.078 7.57 26.285 19.746 33.543 33.988 4.574 8.98 13.488 45.918 23.301 19.703 5.145-13.73 13.008-27.836 22.809-38.797 1.925-2.156 9.632-10.105 17.14-16.496z" fill="#ffa222"/><path d="m442.157 142.773c4.777 4.938 11.055 10.797 17.66 13.57-3.395-3.121-6.602-6.496-9.328-10.418-5.559-7.992-11.207-16.664-14-26.145-.527-1.793-4.426-29.625-10.086-12.375-5.625 17.129-13.133 35.598-26.012 48.695-.824.836-1.641 1.59-2.461 2.375 3.805-2.914 7.371-6.141 10.66-9.211 3.68-3.441 6.863-7.527 10.395-11.125 11.188-11.397 17.477-1.26 23.172 4.634z" fill="#fbe134"/><path d="m648.493 386.512c1.793-17.883 3.723-35.832 6.902-53.531 3.703-20.633 7.387-38.621-7.699-47.047.277.355.578.688.844 1.055 7.664 10.66 3.23 32.523 1.355 44.23-2.727 17.105-7.434 33.902-9.324 51.152-3.957 36.023-3.891 71.48-3.258 107.645.305 17.605.77 35.926-2.5 53.309-3.598 19.129-21.086 31.18-37.742 38.191-12.426 5.234-34.984 9.145-47.375 2.797 3.063 7.766 10.949 12.727 26.031 11.996 19.445-.941 44.613-12.57 56.996-28.047 14.293-17.844 9.844-47.016 10.332-68.555.844-37.746 1.68-75.602 5.438-113.195z" fill="#19bfbb"/><path d="m618.368 363.105c-.41-1.098-.813-2.195-1.305-3.27-13.816-29.941-69.762-20.019-94.152-16.691-34.723 4.738-62.266 12.093-72.602 48.605-13.289 46.957.383 99.762-4.172 147.867-2.496 26.43-18.379 43.152-41.832 54.18-15.992 7.523-33.895 7.898-44.699-2.332 12.539 36.156 59.965 12.754 76.523-3.086 29.105-27.836 14.934-82.082 15.973-119.082.777-27.656-2.074-73.348 15.281-96.898 10.664-14.461 33.25-18.234 49.727-20.007 25.082-2.699 83.52-13.504 101.258 10.714z" fill="#19bfbb"/><g fill="#6cfffb"><path d="m387.489 550.734c-5.859 4.941-13.379 18.844-3.863 24.395 7.793 4.535 18.426-1.141 25.23-5.148 34.301-20.251 7.301-43.442-21.367-19.247z"/><path d="m572.27 543.984c-5.859 4.941-13.379 18.844-3.863 24.395 7.793 4.535 18.426-1.141 25.23-5.148 34.301-20.251 7.301-43.442-21.367-19.247z"/><path d="m628.313 281.071c-50.063-3.461-98.063 3.25-145.953 17.863-36.617 11.172-41.992 41.652-47.395 75.957-1.871 11.863-3.297 23.781-4.34 35.742 4.992-24.254 10.758-49.117 20.766-71.285 5.109-11.34 12.117-19.77 22.973-25.723 26.609-14.578 57.309-20.797 87.02-25.422 27.789-4.332 55.375-5.738 82.922-3.902-4.157-1.648-9.379-2.777-15.993-3.23z"/></g><path d="m146.18 184.941c20.922-8.953 78.68-39.043 105.559-24.113-2.051-3.195-4.625-6-8.016-7.996-10.516-6.195-28.816-.051-39.309 2.859-39.113 10.863-77.594 24.938-109.262 51.109-29.914 24.723-20.102 60.387-9.773 92.348 7.105 22 14.563 43.844 22.563 65.539 7.68 20.82 19.207 41.969 21.348 64.281 1.973 20.566-7.477 40.238-22.109 54.094-18.797 17.797-41.359 17.961-57.898 4.23.742 1.699 1.574 3.367 2.566 4.977 23.867 38.676 70.762-1.965 84.734-27.414 9.34-17 9.066-26.125 2.949-43.078-11.898-32.973-25.734-65.254-35.719-98.902-7.078-23.863-30.48-75.133-14.359-99.071 13.246-19.675 35.551-29.8 56.726-38.863z" fill="#27d89d"/><path d="m342.446 370.848c4.492-21.843-12.125-48.941-19.406-69.015-12.629-34.836-24.191-70.301-31.363-106.715-4.477-22.719-8.348-45.738-9.871-68.871-.402-6.121-.434-12.398-.547-18.652-4.48 22.234-1.195 45.586 1.051 68.074 3.41 34.215 11.555 67.961 22.785 100.411 12.313 35.563 41.035 71.672 17.832 108.757-9.309 14.887-26.629 25.875-43.164 30.773-18.063 5.344-30.82-6.055-35.855-21.07.57 10.227 4.363 19.738 12.941 26.824 30.484 25.191 79.738-22.005 85.597-50.516z" fill="#27d89d"/><path d="m279.235 84.691c-6.875-26.051-36.133-16.801-52.145-12.531-46.824 12.48-92.406 31.945-132.113 60.039-18.926 13.383-40.172 26.109-41.02 52.293-.199 6.25-.109 12.473.117 18.688.449-5.512.953-11.039 2.23-16.523 3.582-15.387 15.023-27.277 26.5-37.352 20.617-18.105 46.758-31.785 71.219-43.82 24.613-12.117 50.813-20.711 77.867-25.188 16.568-2.75 32.474-3.277 47.345 4.394z" fill="#d3ffeb"/><path d="m74.134 429.035c-6.609 7.422-11.508 17.766-13.465 24.449-3.32 11.383-1.504 27.91 13.816 26.242 14.992-1.629 35.223-19.531 35.953-35.16.234-5.016-.664-9.914-2.594-14.398-4.703-10.93-20.535-15.926-33.71-1.133z" fill="#d3ffeb"/><path d="m273.012 349.122c-6.605 7.425-11.504 17.765-13.461 24.449-3.324 11.387-1.508 27.91 13.816 26.242 14.988-1.625 35.223-19.531 35.949-35.16.234-5.016-.66-9.914-2.594-14.394-4.702-10.93-20.53-15.926-33.71-1.137z" fill="#d3ffeb"/></g></g></svg>